<svg width="16" height="16" viewBox="0 0 16 16" fill="none" xmlns="http://www.w3.org/2000/svg">
<g clip-path="url(#clip0_7_11307)">
<path d="M3.42871 13.5781C3.42871 14.6227 4.15862 15.3192 5.25014 15.3192H10.2122C11.3037 15.3192 12.0336 14.6227 12.0336 13.5781V2.8839C12.0336 1.83925 11.3037 1.14282 10.2122 1.14282H5.25014C4.15862 1.14282 3.42871 1.83925 3.42871 2.8839V13.5781ZM4.50684 13.404V3.058C4.50684 2.52229 4.82157 2.22095 5.39076 2.22095H10.0783C10.6408 2.22095 10.9555 2.52229 10.9555 3.058V13.404C10.9555 13.9397 10.6408 14.2411 10.0783 14.2411H5.39076C4.82157 14.2411 4.50684 13.9397 4.50684 13.404Z" fill="#00BBFF"/>
<path d="M5.94653 8.70975C5.94653 8.80352 5.96662 8.89723 6.03358 8.9642L7.45323 10.3705C7.53358 10.4508 7.63404 10.4977 7.73448 10.4977C7.82823 10.4977 7.92868 10.4508 8.00903 10.3705L9.42868 8.9642C9.49565 8.89723 9.52245 8.80352 9.52245 8.70975C9.52245 8.49546 9.37508 8.35483 9.16753 8.35483C9.06037 8.34815 8.98001 8.395 8.90636 8.46198L8.4376 8.93072L8.0693 9.39278L8.09609 8.53563V6.64723C8.09609 6.43966 7.94877 6.28564 7.73448 6.28564C7.5202 6.28564 7.36617 6.43966 7.36617 6.64723V8.53563L7.39966 9.39278L7.03136 8.93072L6.55591 8.46198C6.48225 8.395 6.40189 8.34815 6.29474 8.35483C6.09385 8.35483 5.94653 8.49546 5.94653 8.70975Z" fill="#00BBFF"/>
</g>
<defs>
<clipPath id="clip0_7_11307">
<rect width="8.60491" height="14.1897" fill="white" transform="translate(3.42871 1.14282)"/>
</clipPath>
</defs>
</svg>
