<svg width="28" height="28" viewBox="0 0 28 28" fill="none" xmlns="http://www.w3.org/2000/svg">
<path fill-rule="evenodd" clip-rule="evenodd" d="M10.5 2.33337C11.0021 2.33337 11.448 2.65471 11.6068 3.13111L17.5 20.8107L19.8932 13.6311C20.052 13.1547 20.4978 12.8334 21 12.8334H25.6666C26.311 12.8334 26.8333 13.3557 26.8333 14C26.8333 14.6444 26.311 15.1667 25.6666 15.1667H21.8408L18.6068 24.869C18.448 25.3454 18.0021 25.6667 17.5 25.6667C16.9978 25.6667 16.552 25.3454 16.3932 24.869L10.5 7.18936L8.10676 14.369C7.94796 14.8454 7.50213 15.1667 6.99996 15.1667H2.33329C1.68896 15.1667 1.16663 14.6444 1.16663 14C1.16663 13.3557 1.68896 12.8334 2.33329 12.8334H6.15907L9.39316 3.13111C9.55196 2.65471 9.99779 2.33337 10.5 2.33337Z" fill="#484848"/>
</svg>
