<svg width="16" height="16" viewBox="0 0 16 16" fill="none" xmlns="http://www.w3.org/2000/svg">
<path d="M3.0067 11.3862H4.64732C5.04241 11.3862 5.30357 11.1184 5.30357 10.7434V9.50453C5.30357 9.12281 5.04241 8.86167 4.64732 8.86167H3.0067C2.61161 8.86167 2.35045 9.12281 2.35045 9.50453V10.7434C2.35045 11.1184 2.61161 11.3862 3.0067 11.3862ZM0.542411 6.47775H15.2009V4.95766H0.542411V6.47775ZM2.10268 13.73H13.6339C15.0402 13.73 15.7366 13.0402 15.7366 11.6608V4.36837C15.7366 2.98891 15.0402 2.29248 13.6339 2.29248H2.10268C0.703126 2.29248 0 2.98891 0 4.36837V11.6608C0 13.0402 0.703126 13.73 2.10268 13.73ZM2.11607 12.6518C1.44643 12.6518 1.07813 12.2969 1.07813 11.6005V4.42864C1.07813 3.73221 1.44643 3.37061 2.11607 3.37061H13.6205C14.2768 3.37061 14.6585 3.73221 14.6585 4.42864V11.6005C14.6585 12.2969 14.2768 12.6518 13.6205 12.6518H2.11607Z" fill="#43E660"/>
</svg>
