<svg width="28" height="28" viewBox="0 0 28 28" fill="none" xmlns="http://www.w3.org/2000/svg">
<path fill-rule="evenodd" clip-rule="evenodd" d="M4.66668 5.83325L4.66668 5.83332L4.66668 5.8334C4.66667 5.83444 4.66666 5.8394 4.67024 5.85116C4.6742 5.86416 4.68398 5.88985 4.7076 5.92833C4.75712 6.00899 4.8581 6.13027 5.04729 6.27937C5.4325 6.58295 6.0622 6.90736 6.94432 7.2014C8.69637 7.78542 11.191 8.16666 14 8.16666C16.809 8.16666 19.3036 7.78542 21.0557 7.2014C21.9378 6.90736 22.5675 6.58295 22.9527 6.27937C23.1419 6.13027 23.2429 6.00899 23.2924 5.92833C23.316 5.88985 23.3258 5.86416 23.3298 5.85116C23.3334 5.8394 23.3333 5.83444 23.3333 5.8334V5.83332C23.3333 5.83247 23.3335 5.82756 23.3298 5.81548C23.3258 5.80248 23.316 5.7768 23.2924 5.73832C23.2429 5.65765 23.1419 5.53637 22.9527 5.38728C22.5675 5.0837 21.9378 4.75929 21.0557 4.46525C19.3036 3.88123 16.809 3.49999 14 3.49999C11.191 3.49999 8.69637 3.88123 6.94432 4.46525C6.0622 4.75929 5.4325 5.0837 5.04729 5.38728C4.8581 5.53637 4.75712 5.65765 4.7076 5.73832C4.68398 5.7768 4.6742 5.80248 4.67024 5.81548C4.66666 5.82724 4.66667 5.83221 4.66668 5.83325ZM6.20646 2.25165C8.25466 1.56892 11.01 1.16666 14 1.16666C16.99 1.16666 19.7454 1.56892 21.7936 2.25165C22.8116 2.59099 23.7196 3.02076 24.397 3.55465C25.0613 4.07818 25.6667 4.83939 25.6667 5.83332C25.6667 6.82726 25.0613 7.58847 24.397 8.112C23.7196 8.64589 22.8116 9.07566 21.7936 9.41499C19.7454 10.0977 16.99 10.5 14 10.5C11.01 10.5 8.25466 10.0977 6.20646 9.41499C5.18845 9.07566 4.28047 8.64589 3.60302 8.112C2.93872 7.58847 2.33334 6.82726 2.33334 5.83332C2.33334 4.83939 2.93872 4.07818 3.60302 3.55465C4.28047 3.02076 5.18845 2.59099 6.20646 2.25165Z" fill="#484848"/>
<path fill-rule="evenodd" clip-rule="evenodd" d="M3.50001 4.66666C4.14434 4.66666 4.66668 5.18899 4.66668 5.83332V22.1667L4.66669 22.167L4.66687 22.1685C4.6671 22.17 4.66773 22.1736 4.66951 22.1795C4.67301 22.1913 4.68197 22.2156 4.70418 22.2527C4.75058 22.33 4.84681 22.4492 5.03071 22.5971C5.4053 22.8986 6.03179 23.2306 6.94432 23.5347C8.76169 24.1405 11.3006 24.5 14 24.5C16.6994 24.5 19.2383 24.1405 21.0557 23.5347C21.9682 23.2306 22.5947 22.8986 22.9693 22.5971C23.1532 22.4492 23.2494 22.33 23.2958 22.2527C23.318 22.2156 23.327 22.1913 23.3305 22.1795C23.3323 22.1736 23.3329 22.17 23.3332 22.1685L23.3333 22.167L23.3333 22.1667V5.83332C23.3333 5.18899 23.8557 4.66666 24.5 4.66666C25.1443 4.66666 25.6667 5.18899 25.6667 5.83332V22.1667C25.6667 23.1294 25.0922 23.8838 24.4322 24.415C23.7614 24.9548 22.8502 25.3961 21.7936 25.7483C19.6727 26.4553 16.8702 26.8333 14 26.8333C11.1299 26.8333 8.32736 26.4553 6.20646 25.7483C5.14985 25.3961 4.23866 24.9548 3.56784 24.415C2.9078 23.8838 2.33334 23.1294 2.33334 22.1667V5.83332C2.33334 5.18899 2.85568 4.66666 3.50001 4.66666Z" fill="#484848"/>
<path fill-rule="evenodd" clip-rule="evenodd" d="M3.50001 12.8333C4.14434 12.8333 4.66668 13.3557 4.66668 14L4.66669 14.0003L4.66687 14.0018C4.6671 14.0033 4.66773 14.0069 4.66951 14.0129C4.67301 14.0246 4.68197 14.049 4.70418 14.086C4.75058 14.1634 4.84681 14.2825 5.03071 14.4305C5.4053 14.7319 6.03179 15.0639 6.94432 15.3681C8.76169 15.9739 11.3006 16.3333 14 16.3333C16.6994 16.3333 19.2383 15.9739 21.0557 15.3681C21.9682 15.0639 22.5947 14.7319 22.9693 14.4305C23.1532 14.2825 23.2494 14.1634 23.2958 14.086C23.318 14.049 23.327 14.0246 23.3305 14.0129C23.3323 14.0069 23.3329 14.0033 23.3332 14.0018L23.3333 14.0003L23.3333 14C23.3333 13.3557 23.8557 12.8333 24.5 12.8333C25.1443 12.8333 25.6667 13.3557 25.6667 14C25.6667 14.9628 25.0922 15.7172 24.4322 16.2483C23.7614 16.7881 22.8502 17.2295 21.7936 17.5817C19.6727 18.2886 16.8702 18.6667 14 18.6667C11.1299 18.6667 8.32736 18.2886 6.20646 17.5817C5.14985 17.2295 4.23866 16.7881 3.56784 16.2483C2.9078 15.7172 2.33334 14.9628 2.33334 14C2.33334 13.3557 2.85568 12.8333 3.50001 12.8333Z" fill="#484848"/>
</svg>
