<svg width="16" height="16" viewBox="0 0 16 16" fill="none" xmlns="http://www.w3.org/2000/svg">
<path d="M8 0C12.3765 0 16 3.63133 16 8C16 12.3765 12.3687 16 7.99217 16C3.62353 16 0 12.3765 0 8C0 3.63133 3.63138 0 8 0Z" fill="#E64346" fill-opacity="0.32"/>
<path d="M7.99151 3.73971C7.61507 3.73971 7.339 4.00729 7.339 4.39197V8.68161L7.41425 10.5129L6.55258 9.47598L5.53192 8.4475C5.4148 8.3304 5.24748 8.25512 5.07179 8.25512C4.71205 8.25512 4.44434 8.53105 4.44434 8.88226C4.44434 9.06622 4.49454 9.21677 4.61166 9.3338L7.48956 12.202C7.66525 12.3776 7.80746 12.4445 7.99151 12.4445C8.18397 12.4445 8.33454 12.3692 8.50187 12.202L11.3714 9.3338C11.4886 9.21677 11.5554 9.06622 11.5554 8.88226C11.5554 8.53105 11.2794 8.25512 10.9196 8.25512C10.7356 8.25512 10.5766 8.32205 10.4595 8.4475L9.44722 9.47598L8.56877 10.5212L8.64408 8.68161V4.39197C8.64408 4.00729 8.37637 3.73971 7.99151 3.73971Z" fill="#E64346"/>
</svg>
