<svg xmlns="http://www.w3.org/2000/svg" width="18" height="18" viewBox="0 0 18 18" fill="none">
  <path fill-rule="evenodd" clip-rule="evenodd" d="M8.46967 14.7803C8.76256 15.0732 9.23744 15.0732 9.53033 14.7803L14.7803 9.53033C15.0732 9.23744 15.0732 8.76256 14.7803 8.46967C14.4874 8.17678 14.0126 8.17678 13.7197 8.46967L9 13.1893L4.28033 8.46967C3.98744 8.17678 3.51256 8.17678 3.21967 8.46967C2.92678 8.76256 2.92678 9.23744 3.21967 9.53033L8.46967 14.7803Z" fill="#E64346"/>
  <path fill-rule="evenodd" clip-rule="evenodd" d="M9 15C9.41421 15 9.75 14.6642 9.75 14.25V3.75C9.75 3.33579 9.41421 3 9 3C8.58579 3 8.25 3.33579 8.25 3.75V14.25C8.25 14.6642 8.58579 15 9 15Z" fill="#E64346"/>
</svg>