<svg width="28" height="28" viewBox="0 0 28 28" fill="none" xmlns="http://www.w3.org/2000/svg">
<path fill-rule="evenodd" clip-rule="evenodd" d="M20.175 8.50837C20.6306 8.05275 21.3693 8.05275 21.8249 8.50837L26.4915 13.175C26.9472 13.6306 26.9472 14.3693 26.4915 14.8249L21.8249 19.4916C21.3693 19.9472 20.6306 19.9472 20.175 19.4916C19.7193 19.036 19.7193 18.2973 20.175 17.8417L24.0167 14L20.175 10.1583C19.7193 9.70267 19.7193 8.96398 20.175 8.50837Z" fill="#484848"/>
<path fill-rule="evenodd" clip-rule="evenodd" d="M7.82504 8.50837C8.28065 8.96398 8.28065 9.70267 7.82504 10.1583L3.98333 14L7.82504 17.8417C8.28065 18.2973 8.28065 19.036 7.82504 19.4916C7.36943 19.9472 6.63074 19.9472 6.17512 19.4916L1.50846 14.8249C1.05285 14.3693 1.05285 13.6306 1.50846 13.175L6.17512 8.50837C6.63074 8.05275 7.36943 8.05275 7.82504 8.50837Z" fill="#484848"/>
<path fill-rule="evenodd" clip-rule="evenodd" d="M17.2648 3.55311C17.8798 3.7453 18.2226 4.39966 18.0304 5.01466L12.197 23.6813C12.0049 24.2963 11.3505 24.6391 10.7355 24.4469C10.1205 24.2547 9.77773 23.6004 9.96992 22.9854L15.8033 4.31869C15.9954 3.70368 16.6498 3.36093 17.2648 3.55311Z" fill="#484848"/>
</svg>
