<svg width="28" height="28" viewBox="0 0 28 28" fill="none" xmlns="http://www.w3.org/2000/svg">
<path fill-rule="evenodd" clip-rule="evenodd" d="M1.27513 3.00896C1.46629 2.59693 1.87922 2.33331 2.33343 2.33331H25.6668C26.121 2.33331 26.5339 2.59693 26.7251 3.00896C26.9162 3.42098 26.8509 3.9065 26.5576 4.25333L17.5001 14.9638V24.5C17.5001 24.9043 17.2907 25.2798 16.9468 25.4924C16.6028 25.705 16.1733 25.7243 15.8117 25.5435L11.145 23.2101C10.7498 23.0125 10.5001 22.6085 10.5001 22.1666V14.9638L1.4426 4.25333C1.1493 3.9065 1.08396 3.42098 1.27513 3.00896ZM4.84795 4.66665L12.5576 13.7833C12.7357 13.9939 12.8334 14.2608 12.8334 14.5366V21.4456L15.1668 22.6123V14.5366C15.1668 14.2608 15.2645 13.9939 15.4426 13.7833L23.1522 4.66665H4.84795Z" fill="#484848"/>
</svg>
