<svg width="28" height="28" viewBox="0 0 28 28" fill="none" xmlns="http://www.w3.org/2000/svg">
<path d="M14.5353 24.1847C16.3706 24.1847 20.9844 18.0956 20.9844 15.7516C20.9844 14.3375 18.053 11.8025 16.4726 11.8025C15.7461 11.8025 14.7138 12.6942 14.0765 12.6942C13.4902 12.6942 11.8079 11.3567 11.8079 10.8726C11.8079 10.6815 12.1138 10.4395 12.3559 10.4395C12.7255 10.4395 14.0383 11.6242 14.7775 11.6242C15.848 11.6242 16.5491 10.9236 16.5491 9.81528C16.5491 9.43311 16.3961 9.06369 16.0648 8.59235C17.4794 7.87897 20.0285 6.4777 20.8187 4.73248L19.6716 4.13375C18.9961 5.73885 16.154 7.07642 14.6882 7.84076C14.4078 7.98089 14.2549 8.29935 14.5099 8.65604C15.0323 9.38216 15.2618 9.70063 15.2618 9.98088C15.2618 10.1847 15.1089 10.3376 14.8921 10.3376C14.4716 10.3376 13.0824 9.15286 12.3559 9.15286C11.502 9.15286 10.5206 10.0573 10.5206 10.8726C10.5206 12.0446 12.8785 13.9809 14.0765 13.9809C14.7902 13.9809 16.0648 13.0764 16.4726 13.0764C17.3138 13.0764 19.6971 15.0764 19.6971 15.7516C19.6971 17.2547 15.6059 22.898 14.4971 22.898C14.2039 22.898 13.8344 22.6178 13.8344 22.3758C13.8344 22.2357 13.8725 22.1337 14.0127 21.6878C14.1402 21.2802 14.3314 20.7197 14.3187 20.1082C14.3059 19.2802 13.6304 18.6942 12.1393 17.6369C11.8716 17.4458 11.5912 17.2547 11.3108 17.0382C10.903 16.7325 10.7373 16.465 10.7373 16.1592C10.7373 15.9936 10.7755 15.8153 10.903 15.4203C11.0177 15.0127 11.0941 14.6943 11.0941 14.4649C11.0941 13.8917 10.801 13.5095 10.1892 12.9872C10.1 12.9236 10.0363 12.8599 9.95982 12.7962L7.9206 10.9745C5.37158 8.69425 5.38432 7.38215 6.41668 5.68789L5.16765 5.43311C4.10982 7.15286 3.96962 9.21655 7.06667 11.9427L9.09316 13.7261C9.56472 14.1465 9.80688 14.3121 9.80688 14.5032C9.80688 14.7834 9.45002 15.3822 9.45002 16.1592C9.45002 16.8854 9.80688 17.535 10.5333 18.07C12.0245 19.1911 13.0314 19.8026 13.0314 20.1338C13.0441 20.9108 12.5471 21.5477 12.5471 22.4267C12.5471 23.3057 13.6049 24.1847 14.5353 24.1847ZM14 26.9872C21.1118 26.9872 27 21.0892 27 13.9936C27 6.88534 21.0991 1 13.9873 1C6.88824 1 1 6.88534 1 13.9936C1 21.0892 6.90099 26.9872 14 26.9872ZM14 25.2547C7.84413 25.2547 2.73334 20.1465 2.73334 13.9936C2.73334 7.84076 7.83139 2.73248 13.9873 2.73248C20.1432 2.73248 25.2667 7.84076 25.2667 13.9936C25.2667 20.1465 20.1559 25.2547 14 25.2547Z" fill="#484848"/>
</svg>
