<svg width="18" height="19" viewBox="0 0 18 19" fill="none" xmlns="http://www.w3.org/2000/svg">
<g id="li:percent">
<path id="Vector" fill-rule="evenodd" clip-rule="evenodd" d="M14.7803 4.14423C15.0732 4.43712 15.0732 4.912 14.7803 5.20489L4.28033 15.7049C3.98744 15.9978 3.51256 15.9978 3.21967 15.7049C2.92678 15.412 2.92678 14.9371 3.21967 14.6442L13.7197 4.14423C14.0126 3.85134 14.4874 3.85134 14.7803 4.14423Z" fill="#D3D3D3"/>
<path id="Vector_2" fill-rule="evenodd" clip-rule="evenodd" d="M4.875 4.67456C4.25368 4.67456 3.75 5.17824 3.75 5.79956C3.75 6.42088 4.25368 6.92456 4.875 6.92456C5.49632 6.92456 6 6.42088 6 5.79956C6 5.17824 5.49632 4.67456 4.875 4.67456ZM2.25 5.79956C2.25 4.34981 3.42525 3.17456 4.875 3.17456C6.32475 3.17456 7.5 4.34981 7.5 5.79956C7.5 7.24931 6.32475 8.42456 4.875 8.42456C3.42525 8.42456 2.25 7.24931 2.25 5.79956Z" fill="#D3D3D3"/>
<path id="Vector_3" fill-rule="evenodd" clip-rule="evenodd" d="M13.125 12.9246C12.5037 12.9246 12 13.4282 12 14.0496C12 14.6709 12.5037 15.1746 13.125 15.1746C13.7463 15.1746 14.25 14.6709 14.25 14.0496C14.25 13.4282 13.7463 12.9246 13.125 12.9246ZM10.5 14.0496C10.5 12.5998 11.6753 11.4246 13.125 11.4246C14.5747 11.4246 15.75 12.5998 15.75 14.0496C15.75 15.4993 14.5747 16.6746 13.125 16.6746C11.6753 16.6746 10.5 15.4993 10.5 14.0496Z" fill="#D3D3D3"/>
</g>
</svg>
