<svg width="16" height="16" viewBox="0 0 16 16" fill="none" xmlns="http://www.w3.org/2000/svg">
<path d="M5.67132 12.409H14.1021C14.4035 12.409 14.6378 12.1746 14.6378 11.8733C14.6378 11.5653 14.4035 11.3309 14.1021 11.3309H5.67132C5.36997 11.3309 5.12891 11.5653 5.12891 11.8733C5.12891 12.1746 5.36997 12.409 5.67132 12.409Z" fill="#EE00FF"/>
<path d="M1.9212 12.9716L2.49709 12.5497L3.05289 12.9716C3.25379 13.1256 3.46807 12.9649 3.39441 12.7439L3.17343 12.0608L3.73593 11.639C3.91004 11.505 3.84307 11.264 3.62209 11.264H2.91896L2.68459 10.5274C2.62432 10.3398 2.36316 10.3332 2.30289 10.5274L2.06852 11.264H1.3587C1.13771 11.264 1.06405 11.505 1.24486 11.639L1.81405 12.0608L1.59307 12.7439C1.51941 12.9649 1.727 13.1122 1.9212 12.9716Z" fill="#EE00FF"/>
<path d="M5.67132 8.36438H14.1021C14.4035 8.36438 14.6378 8.12329 14.6378 7.82197C14.6378 7.52063 14.4035 7.28625 14.1021 7.28625H5.67132C5.36997 7.28625 5.12891 7.52063 5.12891 7.82197C5.12891 8.12329 5.36997 8.36438 5.67132 8.36438Z" fill="#EE00FF"/>
<path d="M1.9212 8.91348L2.49709 8.49165L3.05289 8.91348C3.25379 9.06754 3.46807 8.90679 3.39441 8.68582L3.17343 8.00279L3.73593 7.58091C3.91004 7.44698 3.84307 7.20591 3.62209 7.20591H2.91896L2.68459 6.4693C2.62432 6.2818 2.36316 6.2818 2.30289 6.4693L2.06852 7.20591H1.3587C1.13771 7.20591 1.06405 7.44698 1.24486 7.58091L1.81405 8.00279L1.59307 8.68582C1.51941 8.90679 1.727 9.05411 1.9212 8.91348Z" fill="#EE00FF"/>
<path d="M5.67132 4.31305H14.1021C14.4035 4.31305 14.6378 4.07868 14.6378 3.77734C14.6378 3.4693 14.4035 3.23492 14.1021 3.23492H5.67132C5.36997 3.23492 5.12891 3.4693 5.12891 3.77734C5.12891 4.07868 5.36997 4.31305 5.67132 4.31305Z" fill="#EE00FF"/>
<path d="M1.9212 4.87555L2.49709 4.45368L3.05289 4.87555C3.25379 5.02287 3.46807 4.86885 3.39441 4.64787L3.17343 3.96484L3.73593 3.54296C3.91004 3.40903 3.84307 3.16127 3.62209 3.16127H2.91896L2.68459 2.43135C2.62432 2.23716 2.36316 2.23716 2.30289 2.43135L2.06852 3.16127H1.3587C1.13771 3.16127 1.06405 3.40903 1.24486 3.54296L1.81405 3.96484L1.59307 4.64787C1.51271 4.86885 1.727 5.01617 1.9212 4.87555Z" fill="#EE00FF"/>
</svg>
