<svg width="28" height="28" viewBox="0 0 28 28" fill="none" xmlns="http://www.w3.org/2000/svg">
<path fill-rule="evenodd" clip-rule="evenodd" d="M11.6667 10.5C11.0224 10.5 10.5 11.0223 10.5 11.6666V23.3333C10.5 23.9776 11.0224 24.5 11.6667 24.5H23.3334C23.9777 24.5 24.5 23.9776 24.5 23.3333V11.6666C24.5 11.0223 23.9777 10.5 23.3334 10.5H11.6667ZM8.16669 11.6666C8.16669 9.73363 9.73369 8.16663 11.6667 8.16663H23.3334C25.2664 8.16663 26.8334 9.73363 26.8334 11.6666V23.3333C26.8334 25.2663 25.2664 26.8333 23.3334 26.8333H11.6667C9.73369 26.8333 8.16669 25.2663 8.16669 23.3333V11.6666Z" fill="#484848"/>
<path fill-rule="evenodd" clip-rule="evenodd" d="M4.66669 3.49996C4.02769 3.49996 3.50002 4.02763 3.50002 4.66663V16.3333C3.50002 16.9723 4.02769 17.5 4.66669 17.5C5.31102 17.5 5.83335 18.0223 5.83335 18.6666C5.83335 19.311 5.31102 19.8333 4.66669 19.8333C2.73902 19.8333 1.16669 18.261 1.16669 16.3333V4.66663C1.16669 2.73896 2.73902 1.16663 4.66669 1.16663H16.3334C18.261 1.16663 19.8334 2.73896 19.8334 4.66663C19.8334 5.31096 19.311 5.83329 18.6667 5.83329C18.0224 5.83329 17.5 5.31096 17.5 4.66663C17.5 4.02763 16.9724 3.49996 16.3334 3.49996H4.66669Z" fill="#484848"/>
</svg>
