<svg width="16" height="16" viewBox="0 0 16 16" fill="none" xmlns="http://www.w3.org/2000/svg">
<path d="M8 16C12.3765 16 16 12.3687 16 8C16 3.62354 12.3687 0 7.99217 0C3.62353 0 0 3.62354 0 8C0 12.3687 3.63138 16 8 16Z" fill="#43E660" fill-opacity="0.32"/>
<path d="M8.00738 12.3132C7.63094 12.3132 7.35487 12.0456 7.35487 11.6609V7.37127L7.43011 5.54003L6.56845 6.57691L5.54779 7.60539C5.43067 7.72248 5.26334 7.79776 5.08766 7.79776C4.72792 7.79776 4.46021 7.52183 4.46021 7.17062C4.46021 6.98667 4.51041 6.83611 4.62753 6.71909L7.50543 3.85092C7.68112 3.67532 7.82333 3.60843 8.00738 3.60843C8.19984 3.60843 8.35041 3.68369 8.51774 3.85092L11.3873 6.71909C11.5044 6.83611 11.5713 6.98667 11.5713 7.17062C11.5713 7.52183 11.2953 7.79776 10.9355 7.79776C10.7515 7.79776 10.5925 7.73083 10.4754 7.60539L9.46309 6.57691L8.58464 5.53167L8.65995 7.37127V11.6609C8.65995 12.0456 8.39224 12.3132 8.00738 12.3132Z" fill="#43E660"/>
</svg>
