<svg xmlns="http://www.w3.org/2000/svg" width="18" height="18" viewBox="0 0 18 18" fill="none">
  <path fill-rule="evenodd" clip-rule="evenodd" d="M8.46967 3.21967C8.76256 2.92678 9.23744 2.92678 9.53033 3.21967L14.7803 8.46967C15.0732 8.76256 15.0732 9.23744 14.7803 9.53033C14.4874 9.82322 14.0126 9.82322 13.7197 9.53033L9 4.81066L4.28033 9.53033C3.98744 9.82322 3.51256 9.82322 3.21967 9.53033C2.92678 9.23744 2.92678 8.76256 3.21967 8.46967L8.46967 3.21967Z" fill="#43E660"/>
  <path fill-rule="evenodd" clip-rule="evenodd" d="M9 3C9.41421 3 9.75 3.33579 9.75 3.75V14.25C9.75 14.6642 9.41421 15 9 15C8.58579 15 8.25 14.6642 8.25 14.25V3.75C8.25 3.33579 8.58579 3 9 3Z" fill="#43E660"/>
</svg>