<svg width="28" height="28" viewBox="0 0 28 28" fill="none" xmlns="http://www.w3.org/2000/svg">
<path fill-rule="evenodd" clip-rule="evenodd" d="M2.8752 18.0419C3.96916 16.948 5.45289 16.3334 6.99999 16.3334H14C15.5471 16.3334 17.0308 16.948 18.1248 18.0419C19.2187 19.1359 19.8333 20.6196 19.8333 22.1667V24.5C19.8333 25.1444 19.311 25.6667 18.6667 25.6667C18.0223 25.6667 17.5 25.1444 17.5 24.5V22.1667C17.5 21.2385 17.1312 20.3482 16.4749 19.6918C15.8185 19.0355 14.9282 18.6667 14 18.6667H6.99999C6.07173 18.6667 5.18149 19.0355 4.52512 19.6918C3.86874 20.3482 3.49999 21.2385 3.49999 22.1667V24.5C3.49999 25.1444 2.97766 25.6667 2.33332 25.6667C1.68899 25.6667 1.16666 25.1444 1.16666 24.5V22.1667C1.16666 20.6196 1.78124 19.1359 2.8752 18.0419Z" fill="#484848"/>
<path fill-rule="evenodd" clip-rule="evenodd" d="M10.5 4.66671C8.56699 4.66671 6.99999 6.23371 6.99999 8.16671C6.99999 10.0997 8.56699 11.6667 10.5 11.6667C12.433 11.6667 14 10.0997 14 8.16671C14 6.23371 12.433 4.66671 10.5 4.66671ZM4.66666 8.16671C4.66666 4.94505 7.27833 2.33337 10.5 2.33337C13.7217 2.33337 16.3333 4.94505 16.3333 8.16671C16.3333 11.3884 13.7217 14 10.5 14C7.27833 14 4.66666 11.3884 4.66666 8.16671Z" fill="#484848"/>
<path fill-rule="evenodd" clip-rule="evenodd" d="M21.0371 17.36C21.1981 16.7362 21.8345 16.361 22.4583 16.5221C23.7098 16.8452 24.8185 17.5748 25.6103 18.5963C26.4022 19.6178 26.8324 20.8733 26.8333 22.1658L26.8333 24.5C26.8333 25.1444 26.311 25.6667 25.6667 25.6667C25.0223 25.6667 24.5 25.1444 24.5 24.5L24.5 22.1676C24.5 22.1674 24.5 22.1677 24.5 22.1676C24.4994 21.3922 24.2412 20.6386 23.7662 20.0258C23.2911 19.4129 22.6259 18.9752 21.875 18.7813C21.2511 18.6202 20.876 17.9839 21.0371 17.36Z" fill="#484848"/>
<path fill-rule="evenodd" clip-rule="evenodd" d="M17.5365 3.36231C17.6963 2.73811 18.3319 2.36166 18.9561 2.52148C20.2108 2.84275 21.323 3.5725 22.1172 4.59568C22.9114 5.61886 23.3425 6.87727 23.3425 8.17252C23.3425 9.46777 22.9114 10.7262 22.1172 11.7494C21.323 12.7725 20.2108 13.5023 18.9561 13.8236C18.3319 13.9834 17.6963 13.6069 17.5365 12.9827C17.3766 12.3585 17.7531 11.723 18.3773 11.5631C19.1302 11.3704 19.7975 10.9325 20.274 10.3186C20.7505 9.70472 21.0092 8.94967 21.0092 8.17252C21.0092 7.39537 20.7505 6.64033 20.274 6.02642C19.7975 5.41251 19.1302 4.97466 18.3773 4.7819C17.7531 4.62208 17.3766 3.98651 17.5365 3.36231Z" fill="#484848"/>
</svg>
