<svg width="16" height="17" viewBox="0 0 16 17" fill="none" xmlns="http://www.w3.org/2000/svg">
<path fill-rule="evenodd" clip-rule="evenodd" d="M11.9999 6.5C12.3681 6.5 12.6666 6.79848 12.6666 7.16667V13.8333C12.6666 14.2015 12.3681 14.5 11.9999 14.5C11.6317 14.5 11.3333 14.2015 11.3333 13.8333V7.16667C11.3333 6.79848 11.6317 6.5 11.9999 6.5Z" fill="#D3D3D3"/>
<path fill-rule="evenodd" clip-rule="evenodd" d="M7.99992 2.5C8.36811 2.5 8.66659 2.79848 8.66659 3.16667V13.8333C8.66659 14.2015 8.36811 14.5 7.99992 14.5C7.63173 14.5 7.33325 14.2015 7.33325 13.8333V3.16667C7.33325 2.79848 7.63173 2.5 7.99992 2.5Z" fill="#D3D3D3"/>
<path fill-rule="evenodd" clip-rule="evenodd" d="M3.99992 9.16669C4.36811 9.16669 4.66659 9.46516 4.66659 9.83335V13.8334C4.66659 14.2015 4.36811 14.5 3.99992 14.5C3.63173 14.5 3.33325 14.2015 3.33325 13.8334V9.83335C3.33325 9.46516 3.63173 9.16669 3.99992 9.16669Z" fill="#D3D3D3"/>
</svg>
