<svg width="18" height="19" viewBox="0 0 18 19" fill="none" xmlns="http://www.w3.org/2000/svg">
<path fill-rule="evenodd" clip-rule="evenodd" d="M13.5 7.67456C13.9142 7.67456 14.25 8.01035 14.25 8.42456V15.9246C14.25 16.3388 13.9142 16.6746 13.5 16.6746C13.0858 16.6746 12.75 16.3388 12.75 15.9246V8.42456C12.75 8.01035 13.0858 7.67456 13.5 7.67456Z" fill="#D3D3D3"/>
<path fill-rule="evenodd" clip-rule="evenodd" d="M9 3.17456C9.41421 3.17456 9.75 3.51035 9.75 3.92456V15.9246C9.75 16.3388 9.41421 16.6746 9 16.6746C8.58579 16.6746 8.25 16.3388 8.25 15.9246V3.92456C8.25 3.51035 8.58579 3.17456 9 3.17456Z" fill="#D3D3D3"/>
<path fill-rule="evenodd" clip-rule="evenodd" d="M4.5 10.6746C4.91421 10.6746 5.25 11.0103 5.25 11.4246V15.9246C5.25 16.3388 4.91421 16.6746 4.5 16.6746C4.08579 16.6746 3.75 16.3388 3.75 15.9246V11.4246C3.75 11.0103 4.08579 10.6746 4.5 10.6746Z" fill="#D3D3D3"/>
</svg>
